<svg width="330" height="300" viewBox="0 0 330 300" fill="none" xmlns="http://www.w3.org/2000/svg">
<g id="tooltip_meta">
<g clip-path="url(#clip0_1_320)">
<rect width="330" height="300" fill="white"/>
<rect id="quadro_fundo" width="330" height="300" fill="#070F1A" fill-opacity="0.97"/>
<path id="imagem" fill-rule="evenodd" clip-rule="evenodd" d="M216.857 53.7337V86.4675H249.497H282.137V53.7337V21H249.497H216.857V53.7337ZM256.739 32.0714C262.221 33.8935 267.268 38.3876 269.825 43.7221C275.478 55.5198 270.713 69.0122 258.937 74.546C255.463 76.1788 253.456 76.6196 249.497 76.6196C245.287 76.6196 243.473 76.181 239.278 74.148C236.438 72.7725 235.576 72.1585 233.518 70.0471C229.229 65.6482 227.185 61.0148 226.862 54.9609C226.508 48.3164 228.663 42.4962 233.208 37.828C236.138 34.8172 239.048 33.057 243.151 31.8105C245.521 31.0907 246.279 31.0123 249.977 31.1039C253.45 31.1897 254.567 31.3493 256.739 32.0714ZM189.016 32.0766C189.016 32.2517 211.98 74.565 212.189 74.7762C212.292 74.8801 212.377 65.2899 212.377 53.4651V31.965H200.696C194.272 31.965 189.016 32.0153 189.016 32.0766ZM286.623 53.4919C286.628 74.6685 286.638 75.0029 287.228 74.0512C287.945 72.8951 309.978 32.2469 309.978 32.0805C309.978 32.0169 304.722 31.965 298.297 31.965H286.617L286.623 53.4919ZM245.177 35.1813C242.066 36.0153 240.689 36.6474 238.387 38.2966C234.998 40.7257 232.357 44.5522 231.061 48.913C229.884 52.8743 230.474 58.6551 232.424 62.2694C232.858 63.0733 233.115 63.441 232.995 63.0863C232.458 61.4921 232.461 55.8822 233.001 53.4364C234.112 48.406 237.583 43.2477 241.801 40.361C246.172 37.3691 251.835 35.9859 256.518 36.7657C257.652 36.9547 258.63 37.0586 258.691 36.997C258.964 36.7216 255.783 35.5148 253.566 35.0533C250.412 34.397 247.963 34.4344 245.177 35.1813ZM217.005 92.674C216.921 92.8965 216.889 107.664 216.934 125.49L217.017 157.901H249.497H281.977V125.167V92.4337L249.567 92.3515C223.809 92.2864 217.126 92.3525 217.005 92.674ZM254.859 102.913C262.583 104.779 268.585 110.445 271.201 118.341C271.919 120.507 272.02 121.354 272.02 125.167C272.019 129.022 271.921 129.817 271.166 132.101C268.156 141.208 260.154 147.435 250.765 147.975C237.635 148.732 226.753 138.278 226.782 124.939C226.79 121.323 227.511 118.343 229.223 114.848C232.051 109.075 237.729 104.477 243.926 102.943C247.313 102.105 251.467 102.093 254.859 102.913ZM189.016 103.406C189.016 103.499 194.036 112.823 200.17 124.127C206.305 135.43 211.555 145.114 211.838 145.646C212.313 146.542 212.352 145.018 212.364 124.926L212.377 103.237H200.696C194.272 103.237 189.016 103.314 189.016 103.406ZM286.63 124.926C286.642 145.026 286.681 146.543 287.157 145.646C287.439 145.114 292.689 135.428 298.824 124.121C304.958 112.814 309.978 103.489 309.978 103.4C309.978 103.311 304.722 103.237 298.297 103.237H286.617L286.63 124.926ZM245.817 106.329C238.727 107.91 233.163 113.134 231.059 120.186C230.183 123.124 230.317 127.841 231.371 131.14C231.826 132.562 232.416 134.013 232.682 134.365C233.134 134.962 233.15 134.93 232.931 133.875C232.802 133.254 232.697 131.077 232.698 129.037C232.699 126.106 232.848 124.856 233.408 123.071C235.41 116.692 240.94 111.067 247.257 108.985C249.654 108.195 255.545 107.831 257.737 108.337C258.485 108.51 259.097 108.597 259.097 108.531C259.097 108.233 256.479 107.11 254.705 106.647C251.739 105.872 248.399 105.753 245.817 106.329ZM217.005 163.947C216.921 164.169 216.889 178.936 216.934 196.762L217.017 229.174L231.337 229.258L245.657 229.342V234.322V239.302L243.657 239.398L241.657 239.494L241.574 259.247L241.492 279H249.497H257.502L257.42 259.247L257.337 239.494L255.337 239.398L253.337 239.302V234.322V229.342L267.657 229.258L281.977 229.174V196.44V163.706L249.567 163.624C223.809 163.559 217.126 163.625 217.005 163.947ZM255.095 174.34C264.744 176.807 271.509 185.057 272.116 195.096C272.374 199.375 271.686 202.754 269.739 206.76C266.926 212.547 261.354 217.08 255.058 218.703C249.791 220.06 243.933 219.339 238.845 216.709C234.915 214.677 231.175 210.796 229.224 206.727C223.617 195.03 228.091 181.629 239.546 175.807C240.322 175.413 242.266 174.75 243.867 174.333C247.802 173.307 251.063 173.309 255.095 174.34ZM189.535 175.881C190.36 177.494 212.122 217.546 212.258 217.698C212.323 217.772 212.377 208.157 212.377 196.333V174.832H200.688H189L189.535 175.881ZM286.617 196.333C286.617 208.157 286.671 217.772 286.736 217.698C286.843 217.577 308.732 177.274 309.623 175.558L310 174.832H298.309H286.617V196.333ZM244.537 178.021C241.401 178.941 238.978 180.337 236.568 182.613C233.022 185.963 231.268 189.423 230.571 194.449C230.125 197.659 230.773 201.701 232.195 204.585C232.741 205.693 233.094 206.308 232.979 205.954C232.864 205.599 232.701 203.709 232.616 201.755C232.43 197.475 232.896 195.263 234.814 191.319C235.761 189.372 236.78 187.931 238.463 186.159C241.151 183.33 243.355 181.886 247.044 180.539C249.27 179.726 250.155 179.579 253.017 179.547C254.865 179.526 257.025 179.615 257.817 179.744L259.257 179.981L257.797 179.205C254.384 177.391 248.483 176.865 244.537 178.021Z" fill="black"/>
<rect id="quadro_3" x="15" y="182" width="150" height="80" fill="url(#paint0_linear_1_320)"/>
<rect id="quadro_2" x="15" y="110" width="150" height="50" fill="url(#paint1_linear_1_320)"/>
<rect id="quadro_1" x="15" y="38" width="150" height="50" fill="url(#paint2_linear_1_320)"/>
</g>
</g>
<defs>
<linearGradient id="paint0_linear_1_320" x1="165" y1="222" x2="15" y2="222" gradientUnits="userSpaceOnUse">
<stop stop-color="#63B3D9" stop-opacity="0.1"/>
<stop offset="1" stop-color="#070F1A" stop-opacity="0"/>
</linearGradient>
<linearGradient id="paint1_linear_1_320" x1="165" y1="135" x2="15" y2="135" gradientUnits="userSpaceOnUse">
<stop stop-color="#63B3D9" stop-opacity="0.1"/>
<stop offset="1" stop-color="#070F1A" stop-opacity="0"/>
</linearGradient>
<linearGradient id="paint2_linear_1_320" x1="165" y1="63" x2="15" y2="63" gradientUnits="userSpaceOnUse">
<stop stop-color="#63B3D9" stop-opacity="0.1"/>
<stop offset="1" stop-color="#63B3D9" stop-opacity="0"/>
</linearGradient>
<clipPath id="clip0_1_320">
<rect width="330" height="300" fill="white"/>
</clipPath>
</defs>
</svg>
